# xmcd
#
# Track frame offsets: 
#        150
#        12067
#        25430
#        44699
#        60849
#        88964
#        99428
#        113890
#        147667
#        164086
#        184534
#        203744
#        224036
#        235223
#        251730
#        274054
#        292522
#        304658
#        312452
#
# Disc length: 4395 seconds
#
# Revision: 4
# Processed by: cddbd v1.5.2PL0 Copyright (c) Steve Scherf et al.
# Submitted via: ExactAudioCopyFreeDBPlugin 1.0
#
DISCID=19112913
DTITLE=Charlie Haden Family and Friends - Family and Friends ‎– Rambling B
DTITLE=oy 
DYEAR=2008
DGENRE=Jazz, Folk, World, Country
TTITLE0=Charlie Haden, Petra Haden, Tanya Haden, Rachel Haden - Single
TTITLE0=Girl, Married Girl [feat. Petra Haden and Tanya Haden and Rachel 
TTITLE0=Haden]
TTITLE1=Charlie Haden, Vince Gill - Rambling Boy [feat. Vince Gill]
TTITLE2=Charlie Haden, Bruce Hornsby - 20 - 20 Vision [feat. Bruce Hor
TTITLE2=nsby]
TTITLE3=Charlie Haden, Rosanne Cash - Wildwood Flower [feat. Rosanne C
TTITLE3=ash]
TTITLE4=Charlie Haden, Josh Haden - Spiritual [feat. Josh Haden]
TTITLE5=Charlie Haden, Tanya Haden, Rachel Haden - Oh Take Me Back [fe
TTITLE5=at. Tanya Haden and Rachel Haden]
TTITLE6=Charlie Haden, Elvis Costello - You Win Again [feat. Elvis Cos
TTITLE6=tello]
TTITLE7=Charlie Haden, Petra Haden - The Fields of Athenry [feat. Petr
TTITLE7=a Haden]
TTITLE8=Charlie Haden, Dan Tyminski - Ocean of Diamonds [feat. Dan Tym
TTITLE8=inski]
TTITLE9=Charlie Haden, Tanya Haden - He's Gone Away [feat. Tanya Haden
TTITLE9=]
TTITLE10=Charlie Haden, Petra Haden, Tanya Haden, Rachel Haden - A Voi
TTITLE10=ce from on High [feat. Petra Haden and Tanya Haden and Rachel Had
TTITLE10=en]
TTITLE11=Charlie Haden, Ruth Cameron - Traditional: Down By The Salley
TTITLE11=Gardens [feat. Ruth Cameron]
TTITLE12=Charlie Haden, Ricky Skaggs - Road of Broken Hearts [feat. Ri
TTITLE12=cky Skaggs]
TTITLE13=Charlie Haden, Pat Metheny - Is This America? (Katrina 2005) 
TTITLE13=[feat. Pat Metheny]
TTITLE14=Charlie Haden, Rachel Haden - A Tramp on the Street [feat. Ra
TTITLE14=chel Haden]
TTITLE15=Charlie Haden, Jack Black - Old Joe Clark [feat. Jack Black]
TTITLE16=Charlie Haden, Petra Haden, Tanya Haden, Rachel Haden - Seven
TTITLE16=Year Blues [feat. Petra Haden and Tanya Haden and Rachel Haden]
TTITLE17=Charlie Haden Little Cowboy Charlie - Old Haden Family Show [
TTITLE17=feat. Little Cowboy Charlie]
TTITLE18=Charlie Haden - Oh Shenandoah
EXTD=
EXTT0=
EXTT1=
EXTT2=
EXTT3=
EXTT4=
EXTT5=
EXTT6=
EXTT7=
EXTT8=
EXTT9=
EXTT10=
EXTT11=
EXTT12=
EXTT13=
EXTT14=
EXTT15=
EXTT16=
EXTT17=
EXTT18=
PLAYORDER=
